<?xml version="1.0" encoding="UTF-8" standalone="no"?>
<!DOCTYPE svg PUBLIC "-//W3C//DTD SVG 1.1//EN" "http://www.w3.org/Graphics/SVG/1.1/DTD/svg11.dtd">
<svg width="100%" height="100%" viewBox="0 0 256 152" version="1.1" xmlns="http://www.w3.org/2000/svg" xmlns:xlink="http://www.w3.org/1999/xlink" xml:space="preserve" style="fill-rule:evenodd;clip-rule:evenodd;stroke-linejoin:round;stroke-miterlimit:1.41421;">
    <g transform="matrix(1,0,0,1,-356,0)">
        <g id="Logo_White" transform="matrix(1,0,0,1,356,0)">
            <rect x="0" y="0" width="256" height="152" style="fill:none;"/>
            <g transform="matrix(1,0,0,1,-541,-60)">
                <g transform="matrix(1,0,0,1,307,0)">
                    <path d="M350,117L358,117L358,138C358,147.934 349.934,156 340,156C330.066,156 322,147.934 322,138L322,117L330,117L330,138C330,144.071 334.481,149 340,149C345.519,149 350,144.071 350,138L350,117Z" style="fill:white;"/>
                </g>
                <g transform="matrix(1,0,0,-1,351,272)">
                    <path d="M350,117L358,117L358,138C358,147.934 349.934,156 340,156C330.066,156 322,147.934 322,138L322,117L330,117L330,138C330,144.071 334.481,149 340,149C345.519,149 350,144.071 350,138L350,117Z" style="fill:white;"/>
                </g>
                <g transform="matrix(1,0,0,1,-1342,-98)">
                    <path d="M1931,253L1924,253L1924,235L1924.03,235C1924.01,234.669 1924,234.335 1924,234L1924,198L1932,198L1932,218.003C1935.34,215.49 1939.5,214 1944,214C1955.04,214 1964,222.962 1964,234C1964,245.038 1955.04,254 1944,254C1939.22,254 1934.83,252.319 1931.39,249.517L1931,253ZM1943.5,221C1950.4,221 1956,226.825 1956,234C1956,241.175 1950.4,247 1943.5,247C1936.6,247 1931,241.175 1931,234C1931,226.825 1936.6,221 1943.5,221Z" style="fill:white;"/>
                </g>
                <g transform="matrix(-1,0,0,-1,2680,370)">
                    <path d="M1931,253L1924,253L1924,235L1924.03,235C1924.01,234.669 1924,234.335 1924,234L1924,198L1932,198L1932,218.003C1935.34,215.49 1939.5,214 1944,214C1955.04,214 1964,222.962 1964,234C1964,245.038 1955.04,254 1944,254C1939.22,254 1934.83,252.319 1931.39,249.517L1931,253ZM1943.5,221C1950.4,221 1956,226.825 1956,234C1956,241.175 1950.4,247 1943.5,247C1936.6,247 1931,241.175 1931,234C1931,226.825 1936.6,221 1943.5,221Z" style="fill:white;"/>
                </g>
            </g>
            <rect x="0" y="0" width="256" height="152" style="fill:none;"/>
        </g>
    </g>
</svg>
